<svg width="24" height="24" viewBox="0 0 24 24" fill="none" xmlns="http://www.w3.org/2000/svg">
<g clip-path="url(#clip0_1481_3899)">
<path d="M3.875 13.5535C3.875 13.233 4.13483 12.9731 4.45536 12.9731H19.5448C19.8653 12.9731 20.1252 13.233 20.1252 13.5535V22.259C20.1252 22.9 19.6055 23.4197 18.9644 23.4197H5.03573C4.39469 23.4197 3.875 22.9 3.875 22.259V13.5535Z" fill="#F6B22F"/>
<path fill-rule="evenodd" clip-rule="evenodd" d="M4.4554 12.3926H19.5449C20.1859 12.3926 20.7056 12.9122 20.7056 13.5533V22.2588C20.7056 23.2203 19.9261 23.9998 18.9645 23.9998H5.03577C4.07419 23.9998 3.29468 23.2203 3.29468 22.2588V13.5533C3.29468 12.9122 3.81436 12.3926 4.4554 12.3926ZM4.4554 12.9729C4.13487 12.9729 3.87504 13.2328 3.87504 13.5533V22.2588C3.87504 22.8998 4.39473 23.4195 5.03577 23.4195H18.9645C19.6055 23.4195 20.1252 22.8998 20.1252 22.2588V13.5533C20.1252 13.2328 19.8654 12.9729 19.5449 12.9729H4.4554Z" fill="#E68C06"/>
<path fill-rule="evenodd" clip-rule="evenodd" d="M4.4009 15.6641C4.56117 15.6641 4.69108 15.794 4.69108 15.9542V21.2501C4.69108 21.4103 4.56117 21.5402 4.4009 21.5402C4.24063 21.5402 4.11072 21.4103 4.11072 21.2501V15.9542C4.11072 15.794 4.24063 15.6641 4.4009 15.6641Z" fill="#FFC24A"/>
<path fill-rule="evenodd" clip-rule="evenodd" d="M3.97754 22.7367C4.15969 23.1395 4.56495 23.4197 5.03569 23.4197H18.9644C19.6055 23.4197 20.1251 22.9 20.1251 22.259V13.5535C20.1251 13.233 19.8653 12.9731 19.5448 12.9731V21.6786C19.5448 22.3196 19.0251 22.8393 18.384 22.8393H4.45532C4.28502 22.8393 4.12327 22.8026 3.97754 22.7367Z" fill="#E7A320"/>
<path d="M3.875 12.3926H20.1252V15.2581H3.875V12.3926Z" fill="#E7A320"/>
<path d="M18.2672 17.5337C18.2672 17.6891 18.1412 17.8151 17.9857 17.8151C17.8303 17.8151 17.7043 17.6891 17.7043 17.5337C17.7043 17.3782 17.8303 17.2522 17.9857 17.2522C18.1412 17.2522 18.2672 17.3782 18.2672 17.5337ZM18.7867 22.3039C18.7867 22.4594 18.6607 22.5854 18.5053 22.5854C18.3498 22.5854 18.2238 22.4594 18.2238 22.3039C18.2238 22.1485 18.3498 22.0225 18.5053 22.0225C18.6607 22.0225 18.7867 22.1485 18.7867 22.3039ZM19.407 18.195C19.407 18.4049 19.2369 18.575 19.0271 18.575C18.8172 18.575 18.6471 18.4049 18.6471 18.195C18.6471 17.9852 18.8172 17.8151 19.0271 17.8151C19.2369 17.8151 19.407 17.9852 19.407 18.195ZM19.217 16.9602C19.217 17.1176 19.0894 17.2452 18.9321 17.2452C18.7747 17.2452 18.6471 17.1176 18.6471 16.9602C18.6471 16.8029 18.7747 16.6753 18.9321 16.6753C19.0894 16.6753 19.217 16.8029 19.217 16.9602ZM19.4487 19.8273C19.4487 20.1538 19.1841 20.4183 18.8577 20.4183C18.5313 20.4183 18.2667 20.1538 18.2667 19.8273C18.2667 19.5009 18.5313 19.2363 18.8577 19.2363C19.1841 19.2363 19.4487 19.5009 19.4487 19.8273ZM18.2672 18.7649C18.2672 18.9748 18.0971 19.1449 17.8873 19.1449C17.6774 19.1449 17.5073 18.9748 17.5073 18.7649C17.5073 18.5551 17.6774 18.385 17.8873 18.385C18.0971 18.385 18.2672 18.5551 18.2672 18.7649ZM19.5448 21.3683C19.5448 21.5781 19.3747 21.7482 19.1649 21.7482C18.955 21.7482 18.7849 21.5781 18.7849 21.3683C18.7849 21.1585 18.955 20.9884 19.1649 20.9884C19.3747 20.9884 19.5448 21.1585 19.5448 21.3683ZM18.4467 21.0586C18.4467 21.1859 18.3435 21.2891 18.2162 21.2891C18.089 21.2891 17.9858 21.1859 17.9858 21.0586C17.9858 20.9313 18.089 20.8281 18.2162 20.8281C18.3435 20.8281 18.4467 20.9313 18.4467 21.0586ZM17.6475 21.7833C17.6475 21.9931 17.4774 22.1632 17.2676 22.1632C17.0577 22.1632 16.8876 21.9931 16.8876 21.7833C16.8876 21.5735 17.0577 21.4034 17.2676 21.4034C17.4774 21.4034 17.6475 21.5735 17.6475 21.7833ZM17.7043 20.4887C17.7043 20.6985 17.5342 20.8687 17.3244 20.8687C17.1146 20.8687 16.9445 20.6985 16.9445 20.4887C16.9445 20.2789 17.1146 20.1088 17.3244 20.1088C17.5342 20.1088 17.7043 20.2789 17.7043 20.4887ZM16.3113 22.3004C16.3113 22.4578 16.1837 22.5854 16.0263 22.5854C15.8689 22.5854 15.7413 22.4578 15.7413 22.3004C15.7413 22.1431 15.8689 22.0155 16.0263 22.0155C16.1837 22.0155 16.3113 22.1431 16.3113 22.3004Z" fill="#E88E07"/>
<path d="M1.55347 10.9416C1.55347 9.65949 2.59281 8.62012 3.87492 8.62012H20.1251C21.4072 8.62012 22.4466 9.65949 22.4466 10.9416V13.263C22.4466 13.5836 22.1867 13.8434 21.8662 13.8434H2.13383C1.8133 13.8434 1.55347 13.5836 1.55347 13.263V10.9416Z" fill="#FFC658"/>
<path fill-rule="evenodd" clip-rule="evenodd" d="M3.87496 8.04004H20.1251C21.7278 8.04004 23.027 9.33924 23.027 10.9419V13.2633C23.027 13.9044 22.5073 14.424 21.8662 14.424H2.13387C1.49283 14.424 0.973145 13.9044 0.973145 13.2633V10.9419C0.973145 9.33924 2.27235 8.04004 3.87496 8.04004ZM3.87496 8.6204C2.59285 8.6204 1.55351 9.65978 1.55351 10.9419V13.2633C1.55351 13.5838 1.81334 13.8437 2.13387 13.8437H21.8662C22.1868 13.8437 22.4466 13.5838 22.4466 13.2633V10.9419C22.4466 9.65978 21.4073 8.6204 20.1251 8.6204H3.87496Z" fill="#CF8C0B"/>
<path fill-rule="evenodd" clip-rule="evenodd" d="M1.6311 13.5535C1.73145 13.727 1.91899 13.8437 2.13381 13.8437H21.8662C22.1867 13.8437 22.4465 13.5839 22.4465 13.2633V10.9419C22.4465 9.91728 21.7828 9.04772 20.8618 8.73975C21.4685 9.15854 21.8662 9.85869 21.8662 10.6517V12.9732C21.8662 13.2937 21.6063 13.5535 21.2858 13.5535H1.6311Z" fill="#F2B43D"/>
<path d="M10.9119 8.62012H13.3174V23.4194H10.9119V8.62012Z" fill="#FF4646"/>
<path fill-rule="evenodd" clip-rule="evenodd" d="M10.3315 8.04004H13.8978V24H10.3315V8.04004ZM10.9119 8.6204V23.4197H13.3174V8.6204H10.9119Z" fill="#CD2222"/>
<path fill-rule="evenodd" clip-rule="evenodd" d="M11.4923 9.78125C11.6526 9.78125 11.7825 9.91116 11.7825 10.0714V14.5692C11.7825 14.7295 11.6526 14.8594 11.4923 14.8594C11.3321 14.8594 11.2021 14.7295 11.2021 14.5692V10.0714C11.2021 9.91116 11.3321 9.78125 11.4923 9.78125Z" fill="#FF7575"/>
<path fill-rule="evenodd" clip-rule="evenodd" d="M12.3991 13.1543C12.5593 13.1543 12.6893 13.2842 12.6893 13.4445V22.5852C12.6893 22.7455 12.5593 22.8754 12.3991 22.8754C12.2388 22.8754 12.1089 22.7455 12.1089 22.5852V13.4445C12.1089 13.2842 12.2388 13.1543 12.3991 13.1543Z" fill="#F02E2E"/>
<path d="M6.07593 9.92904C6.34133 10.6639 4.71594 10.2334 4.24338 10.9037C3.46351 12.0101 2.34977 12.1055 2.08439 11.3706C1.81899 10.6358 2.23433 9.6877 3.33656 9.2896C4.43881 8.89153 5.81056 9.19421 6.07593 9.92904Z" fill="#FFE68F"/>
<path d="M6.24951 8.34661C8.43763 7.69518 10.6865 8.00347 11.5934 8.34661L12.7178 7.69518C9.09057 6.13543 8.20185 6.33496 7.22252 6.33493L6.24951 8.34661Z" fill="#DC2C2C"/>
<path fill-rule="evenodd" clip-rule="evenodd" d="M11.8843 8.84876C11.7334 8.9362 11.5512 8.95114 11.388 8.88939C10.5967 8.58998 8.47805 8.28868 6.41517 8.90282C6.19478 8.96843 5.95645 8.89775 5.80747 8.72262C5.65852 8.54747 5.62698 8.30087 5.72709 8.09388L6.7001 6.08223C6.79702 5.88186 7 5.75456 7.22257 5.75458C7.30777 5.75458 7.39633 5.75267 7.48983 5.7507C7.88988 5.74214 8.38005 5.73169 9.08107 5.85914C9.93949 6.01523 11.1135 6.37351 12.9472 7.16202C13.1487 7.2487 13.2842 7.44164 13.2972 7.66067C13.3103 7.8797 13.1987 8.08736 13.0088 8.19736L11.8843 8.84876ZM12.0463 7.41353C9.30295 6.29424 8.34253 6.31397 7.51603 6.33092C7.41723 6.33295 7.32037 6.33495 7.22257 6.33495L6.24957 8.3466C6.49396 8.27383 6.73913 8.21303 6.98309 8.16295C8.9233 7.76447 10.7879 8.0418 11.5934 8.3466L12.7179 7.69518C12.4828 7.59408 12.2592 7.50038 12.0463 7.41353Z" fill="#B31B1B"/>
<path d="M18.5078 8.44092C15.9288 7.7495 14.0803 7.82144 12.7538 8.18593L11.9749 7.94131C15.2897 6.18989 16.5531 6.64759 17.4112 6.80394L18.5078 8.44092Z" fill="#BF2222"/>
<path fill-rule="evenodd" clip-rule="evenodd" d="M12.5694 8.73818C12.6759 8.77161 12.7903 8.77352 12.899 8.74366C14.1039 8.41262 15.8444 8.32911 18.3468 8.99998C18.5808 9.06272 18.8321 8.97308 18.9764 8.77532C19.1208 8.57759 19.1278 8.31358 18.9939 8.1137L17.8973 6.4767C17.812 6.34934 17.6784 6.26211 17.5263 6.2344C17.4688 6.22395 17.4064 6.21122 17.3386 6.19743C16.9432 6.11694 16.3684 5.99988 15.566 6.08127C14.6306 6.17619 13.4114 6.53192 11.7095 7.43111C11.5011 7.54123 11.3771 7.76369 11.3947 7.99566C11.4124 8.2276 11.5684 8.42382 11.7905 8.49358L12.5694 8.73818ZM12.772 8.18091C13.9476 7.86142 15.5308 7.7717 17.6654 8.23593C17.9372 8.29504 18.2179 8.36312 18.5078 8.44086L17.4112 6.80388C17.345 6.79181 17.2763 6.77794 17.2045 6.76343C16.4194 6.60488 15.2553 6.3698 12.7234 7.56607C12.4862 7.67817 12.237 7.8028 11.9749 7.94125L12.7538 8.18587C12.7599 8.18422 12.7659 8.18257 12.772 8.18091Z" fill="#9D1818"/>
<path fill-rule="evenodd" clip-rule="evenodd" d="M17.0115 7.01252C16.8831 7.11063 16.8571 7.29266 16.9534 7.41909L17.3417 7.92885C17.438 8.05528 17.6201 8.07824 17.7485 7.98013C17.8769 7.88202 17.9029 7.69999 17.8066 7.57355L17.4183 7.06379C17.322 6.93736 17.1399 6.91441 17.0115 7.01252Z" fill="#DE3838"/>
<path d="M3.44666 5.5642C7.06058 5.43521 9.79424 7.12694 10.8948 7.95361L11.608 7.68615C9.21306 4.61545 5.47517 3.5232 4.42602 3.47852L4.20835 4.58483L3.44666 5.5642Z" fill="#EA2F2F"/>
<path fill-rule="evenodd" clip-rule="evenodd" d="M11.0986 8.49733C10.913 8.56692 10.7047 8.53697 10.5463 8.41794C9.496 7.62902 6.8924 6.02225 3.46739 6.14451C3.24215 6.15255 3.03261 6.02942 2.92997 5.82876C2.82736 5.62807 2.8502 5.38612 2.98859 5.20821L3.66558 4.33772L3.85661 3.36677C3.91195 3.0855 4.16438 2.88678 4.45076 2.89897C5.08161 2.92584 6.35835 3.24266 7.76579 3.92578C9.18768 4.61586 10.7999 5.70659 12.0657 7.32952C12.1793 7.47516 12.2168 7.66619 12.1666 7.84396C12.1165 8.02172 11.9848 8.16501 11.8118 8.22987L11.0986 8.49733ZM4.2084 4.58513L3.4467 5.56449C3.69646 5.55558 3.94201 5.55538 4.18312 5.56295C7.43069 5.66521 9.87037 7.18437 10.8948 7.95391L11.6081 7.68645C11.4808 7.52336 11.3499 7.36585 11.2157 7.21377C8.82362 4.50269 5.4195 3.52115 4.42606 3.47881L4.2084 4.58513Z" fill="#B31B1B"/>
<path fill-rule="evenodd" clip-rule="evenodd" d="M5.88572 5.57971C5.18112 5.39135 4.61942 5.37679 4.44943 5.38929C4.2896 5.40105 4.15049 5.281 4.13873 5.12117C4.12698 4.96133 4.24703 4.82225 4.40686 4.8105C4.64794 4.79277 5.2748 4.81566 6.03559 5.01905C6.19044 5.06043 6.28239 5.21951 6.24101 5.37432C6.19961 5.52916 6.04056 5.62112 5.88572 5.57971Z" fill="#FF4444"/>
<path d="M20.6463 5.96617C17.4561 5.85233 15.4554 6.78979 14.4839 7.51951L13.2874 7.51136C15.4015 4.80071 18.9365 3.88321 19.8626 3.84375L19.8554 4.90048L20.6463 5.96617Z" fill="#D92525"/>
<path fill-rule="evenodd" clip-rule="evenodd" d="M14.48 8.10017C14.6071 8.10104 14.7309 8.06018 14.8325 7.98386C15.6925 7.33786 17.5614 6.4371 20.6256 6.54647C20.8485 6.55442 21.0563 6.43394 21.16 6.23653C21.2638 6.03912 21.2453 5.79969 21.1124 5.62059L20.4371 4.71073L20.443 3.84801C20.4441 3.68911 20.38 3.53674 20.2656 3.42641C20.1513 3.31605 19.9967 3.25744 19.838 3.2642C19.2787 3.28802 18.0889 3.55435 16.7808 4.1476C15.4615 4.74592 13.9618 5.70326 12.8298 7.15472C12.6938 7.32904 12.6687 7.56548 12.765 7.76448C12.8613 7.96349 13.0624 8.09047 13.2834 8.09198L14.48 8.10017ZM19.8555 4.90077L20.6463 5.96646C20.3961 5.95755 20.1533 5.95508 19.9177 5.95848C17.1487 5.99838 15.3792 6.84731 14.484 7.5198L13.2874 7.51165C13.4451 7.30945 13.6107 7.11726 13.7825 6.93465C15.568 5.03709 18.0265 4.17572 19.2817 3.92448C19.5252 3.87576 19.7234 3.84999 19.8626 3.84404L19.8555 4.90077Z" fill="#B31B1B"/>
<path fill-rule="evenodd" clip-rule="evenodd" d="M19.3231 3.9834C19.4834 3.9834 19.6133 4.11334 19.6133 4.27358V4.70586C19.6133 4.86613 19.4834 4.99605 19.3231 4.99605C19.1629 4.99605 19.033 4.86613 19.033 4.70586V4.27358C19.033 4.11334 19.1629 3.9834 19.3231 3.9834Z" fill="#FF5252"/>
<path d="M13.855 2.00045C11.1023 3.49262 11.6374 6.78842 11.6374 7.74965L12.2177 7.84033C12.4584 5.4826 14.0957 2.61706 15.3472 3.8866C16.1902 4.74188 13.3367 7.7688 12.1222 8.31187H13.0849C14.577 8.11237 16.8469 6.04233 17.2886 4.14051C17.6255 2.6896 16.5986 0.513244 13.855 2.00045Z" fill="#E33030"/>
<path fill-rule="evenodd" clip-rule="evenodd" d="M11.5418 8.32238C11.2623 8.27581 11.0569 8.03388 11.0569 7.74994C11.0569 7.66967 11.051 7.55404 11.0436 7.41034C11.0155 6.86555 10.9666 5.91773 11.1433 4.96831C11.3745 3.72494 12.0018 2.3451 13.5783 1.49051C14.3259 1.08528 15.0079 0.901242 15.6176 0.923705C16.2383 0.946572 16.7493 1.18301 17.1305 1.55192C17.8666 2.26428 18.0572 3.39594 17.8538 4.27208C17.5985 5.3712 16.8385 6.45814 15.9834 7.28266C15.1378 8.09787 14.0872 8.76369 13.1617 8.88742C13.1362 8.89082 13.1105 8.89253 13.0848 8.89253H12.1221C11.8483 8.89253 11.6117 8.70112 11.5545 8.43329C11.5466 8.39626 11.5425 8.35915 11.5418 8.32238ZM13.2314 8.28712C14.7213 7.97941 16.861 5.98134 17.2884 4.1408C17.6254 2.68989 16.5985 0.51353 13.8549 2.00074C11.4204 3.32043 11.5575 6.05092 11.6217 7.32944C11.6301 7.49655 11.6373 7.63883 11.6373 7.74994L12.2176 7.84062C12.2213 7.80446 12.2253 7.76819 12.2297 7.7318C12.2362 7.67722 12.2434 7.6224 12.2514 7.56744C12.2658 7.46753 12.2825 7.36704 12.3015 7.26632C12.7183 5.05012 14.1959 2.71912 15.3471 3.88689C16.0228 4.57245 14.3236 6.65328 12.9971 7.7318C12.9289 7.7872 12.8618 7.83995 12.796 7.88975C12.7921 7.89265 12.7883 7.89558 12.7844 7.89848C12.5478 8.07674 12.329 8.21614 12.1456 8.30146C12.1377 8.30511 12.1299 8.30871 12.1221 8.31216H13.0848C13.1329 8.30575 13.1818 8.29737 13.2314 8.28712ZM12.9507 7.00765C13.3291 6.66773 13.7204 6.26183 14.0565 5.84977C14.4205 5.40344 14.6955 4.97951 14.8321 4.64398C14.9284 4.40745 14.9231 4.30713 14.9177 4.27844C14.8307 4.1946 14.7673 4.16918 14.7312 4.16074C14.6947 4.15221 14.6455 4.15134 14.5706 4.17986C14.3975 4.24582 14.151 4.44692 13.879 4.83605C13.4887 5.39445 13.1486 6.1921 12.9507 7.00765Z" fill="#BC2020"/>
<path fill-rule="evenodd" clip-rule="evenodd" d="M12.8587 2.9838C14.1375 1.33119 15.7313 1.61672 15.8655 1.64357C16.0227 1.67502 16.1246 1.82789 16.0932 1.98502C16.0618 2.14219 15.9089 2.2441 15.7517 2.21267C15.7046 2.20327 14.3966 1.94469 13.3177 3.33898C13.2196 3.46573 13.0373 3.48898 12.9106 3.3909C12.7838 3.29281 12.7606 3.11055 12.8587 2.9838Z" fill="#FF4444"/>
<path fill-rule="evenodd" clip-rule="evenodd" d="M4.07434 9.66689C4.07907 9.8271 3.95301 9.96078 3.79283 9.96549C3.43945 9.97587 3.18902 10.2191 3.02292 10.4517C2.92978 10.5821 2.74853 10.6123 2.61812 10.5191C2.48771 10.426 2.4575 10.2447 2.55065 10.1143C2.74728 9.83908 3.14251 9.40398 3.77577 9.38538C3.93595 9.38065 4.06964 9.50671 4.07434 9.66689Z" fill="white"/>
<path d="M6.34145 3.30028C7.21197 5.65801 10.0231 7.27215 11.9637 8.30592C10.1451 7.15126 8.39913 5.02974 7.90118 4.09828C7.40322 3.1668 7.73795 1.94005 9.0619 2.17583C10.7763 2.48113 11.8232 6.483 12.3809 8.19202C12.4474 7.21318 12.2063 3.72818 10.7667 1.95819C8.55406 -0.762254 5.49598 1.01046 6.34145 3.30028Z" fill="#F23535"/>
<path fill-rule="evenodd" clip-rule="evenodd" d="M12.3143 8.76848C12.1392 8.90106 11.8965 8.9275 11.6909 8.81801C10.7168 8.29908 9.49018 7.61715 8.39306 6.75598C7.30078 5.89861 6.28573 4.82459 5.79709 3.50119C5.26104 2.04932 5.97636 0.717258 7.18436 0.214457C8.4024 -0.292531 9.98189 0.0732518 11.217 1.59188C12.029 2.59019 12.4714 4.01942 12.7087 5.26282C12.9481 6.51675 12.9972 7.68323 12.96 8.23124C12.9411 8.5085 12.7284 8.73348 12.4526 8.76781C12.4058 8.77361 12.3595 8.77367 12.3143 8.76848ZM12.2088 5.77047C11.996 4.45269 11.5662 2.94096 10.7668 1.95806C8.55414 -0.762388 5.49606 1.01032 6.34153 3.30015C6.80666 4.55989 7.82578 5.60735 8.97011 6.46742C9.89916 7.16569 10.9107 7.74042 11.7754 8.205C11.839 8.23919 11.9018 8.27279 11.9638 8.30578C11.8978 8.26391 11.832 8.22076 11.7663 8.17645C10.8947 7.5886 10.0497 6.7951 9.36235 6.03607C8.6727 5.27455 8.14161 4.54773 7.90126 4.09815C7.40331 3.16666 7.73803 1.93992 9.06198 2.17569C10.1988 2.37812 11.0421 4.20589 11.6438 5.91277C11.8495 6.49612 12.027 7.06534 12.1783 7.55076C12.2056 7.63834 12.2321 7.72319 12.2577 7.8049C12.2604 7.8134 12.263 7.82188 12.2656 7.83032C12.3062 7.95948 12.3446 8.08054 12.3809 8.19189C12.3862 8.11389 12.3896 8.01995 12.3905 7.91227C12.3948 7.41896 12.3487 6.63663 12.2088 5.77047ZM11.4726 7.23998C11.2398 6.50344 10.961 5.66432 10.6232 4.88924C10.3589 4.28282 10.0728 3.75112 9.76829 3.36175C9.45669 2.96342 9.18296 2.78673 8.96025 2.74706C8.71832 2.70397 8.57384 2.73644 8.49439 2.77295C8.41888 2.80765 8.36291 2.8634 8.32266 2.94813C8.23241 3.13817 8.22937 3.4809 8.41308 3.82451C8.62964 4.22966 9.15476 4.95207 9.86486 5.72584C10.3478 6.25211 10.8995 6.78358 11.4726 7.23998Z" fill="#BC2020"/>
<path fill-rule="evenodd" clip-rule="evenodd" d="M7.59732 1.05178C7.68722 1.18448 7.65252 1.36488 7.51985 1.45478C7.23085 1.65054 6.67312 2.33165 7.0671 3.39923C7.12259 3.5496 7.04569 3.71646 6.89534 3.77194C6.74497 3.82742 6.57812 3.75053 6.52264 3.60018C6.01705 2.23023 6.73368 1.28633 7.19435 0.97427C7.32702 0.884401 7.50745 0.919098 7.59732 1.05178Z" fill="#FF7878"/>
</g>
<defs>
<clipPath id="clip0_1481_3899">
<rect width="24" height="24" fill="white"/>
</clipPath>
</defs>
</svg>
