<svg width="39" height="48" viewBox="0 0 39 48" fill="none" xmlns="http://www.w3.org/2000/svg">
<path d="M19.6153 47.1608C10.944 47.1608 3.83911 40.1119 3.83911 31.3846C3.83911 26.965 5.68526 22.7692 8.93002 19.8042C9.1538 19.5804 9.37757 19.3566 9.60135 19.2447C9.71324 19.1888 9.76918 19.1329 9.82513 19.1329C9.93701 19.0769 10.0489 19.021 10.2167 19.021C10.4405 19.021 10.6643 19.1329 10.7762 19.2447C11 19.5245 11.0559 19.9161 10.8881 20.1958C10.3846 21.035 10.2727 22.0979 10.6083 23.2168C10.7202 23.6643 10.944 24.0559 11.1678 24.3916C10.9999 23.5524 10.944 22.6573 10.944 21.6503C11 20.3636 11.3356 19.0769 12.0069 17.7343C12.7342 16.3357 13.6853 15.0489 14.6363 13.8741L15.0839 13.2587C16.8181 11.021 18.5524 8.67132 19.1118 5.986C19.3916 4.53146 19.2237 3.13285 18.5524 1.90208C18.3846 1.56642 18.4405 1.17481 18.7202 0.951037C18.8881 0.839149 19.0559 0.783203 19.2237 0.783203C19.3916 0.783203 19.5594 0.839148 19.6713 0.895092C25.3216 4.75523 23.923 10.965 22.916 15.4965C22.8041 15.944 22.7482 16.3356 22.6363 16.7832C22.4125 17.7343 22.3566 18.4056 22.3006 18.9091C22.1888 20.5874 23.0279 21.5944 24.0349 22.2657C23.6992 21.5944 23.4755 20.9231 23.3636 20.2517C23.1398 19.1329 23.1398 18.014 23.3636 16.951C23.8111 14.8252 25.1538 13.0909 27.0559 12.1398C27.1678 12.0839 27.2797 12.0839 27.3916 12.0839C27.6153 12.0839 27.7832 12.1398 27.951 12.3077C28.1748 12.5315 28.2867 12.8671 28.1188 13.2028C27.8391 13.8741 27.7272 14.6014 27.8951 15.3846V15.4405C28.0069 15.944 28.1188 16.4475 28.3986 16.951C28.7902 17.9021 29.1258 18.4056 30.1328 19.4126L30.1888 19.4685C31.8671 21.1468 35.3356 24.7273 35.3356 31.3846C35.3916 40.1119 28.2867 47.1608 19.6153 47.1608Z" fill="url(#paint0_radial_1481_5311)"/>
<path d="M19.2797 1.62238C24.986 5.53846 22.8601 12.1399 21.9091 16.6713C21.7413 17.5105 21.5734 18.2937 21.5734 18.965C21.3496 23.1049 25.993 23.9441 26.2168 24.1119C25.2657 22.993 24.5385 21.6504 24.2028 20.1958C23.979 19.1888 23.979 18.1818 24.2028 17.2308C24.5944 15.4406 25.7133 13.8182 27.4475 12.9231C27.0559 13.8182 27 14.6573 27.1678 15.5524V15.6084C27.2797 16.1678 27.4475 16.7832 27.7273 17.3427C28.1748 18.4056 28.6224 18.965 29.6294 20.028C31.2517 21.7063 34.6084 25.007 34.6084 31.4965C34.6084 39.7762 27.8951 46.4336 19.6713 46.4336C11.3916 46.4336 4.73426 39.7203 4.73426 31.4965C4.73426 27.1329 6.58042 23.2168 9.6014 20.4755C9.76923 20.3077 9.93706 20.1399 10.1049 20.028C10.1608 19.972 10.2168 19.972 10.2727 19.9161C8.81818 22.2098 10.1049 25.9021 13.4056 27.2448C13.4615 27.2448 11.6713 25.9021 11.7832 21.8182C11.8392 20.5315 12.2308 19.3566 12.7343 18.2378C13.5175 16.7273 14.6364 15.3287 15.6434 13.986C17.3776 11.6923 19.3357 9.23077 19.8951 6.26573C20.1748 4.64336 20.007 3.02098 19.2797 1.62238ZM19.2797 0C18.8881 0 18.5524 0.111889 18.2727 0.391609C17.7133 0.839161 17.6014 1.62238 17.8811 2.29371C18.4406 3.41259 18.6084 4.64336 18.3287 5.93007C17.8252 8.44755 16.1469 10.6853 14.4685 12.8671L14.3566 12.979L13.965 13.4825C13.014 14.7133 12.007 16 11.2797 17.5105C11.1119 17.8462 10.9441 18.1818 10.8322 18.4615C10.6084 18.3496 10.4406 18.2937 10.1608 18.2937C10.1049 18.2937 10.049 18.2937 9.99301 18.2937C9.76923 18.2937 9.54546 18.4056 9.37762 18.5175C9.32168 18.5734 9.26573 18.5734 9.15385 18.6294C9.15385 18.6294 9.15385 18.6294 9.0979 18.6294C8.81818 18.7972 8.59441 19.021 8.31469 19.3007C4.95804 22.4336 3 26.8531 3 31.4406C3 40.5594 10.4406 48 19.5594 48C28.6783 48 36.1189 40.5594 36.1189 31.4406C36.1189 24.3916 32.4825 20.6993 30.7483 18.965V18.9091C29.7972 17.958 29.5175 17.5664 29.1818 16.7273C29.1818 16.7273 29.1818 16.6713 29.1259 16.6713C28.9021 16.1678 28.7343 15.7203 28.6783 15.3287V15.2727C28.5664 14.6573 28.6224 14.0979 28.8462 13.5385C29.1259 12.9231 28.958 12.2517 28.5105 11.7483C28.2308 11.4685 27.8392 11.3007 27.4475 11.3007C27.2238 11.3007 26.9441 11.3566 26.7203 11.4685C25.7133 11.972 24.8741 12.6434 24.2028 13.5385C25.042 9.23077 25.3217 3.86014 20.1748 0.335663C19.8951 0.111887 19.5594 0 19.2797 0Z" fill="#ECD92B"/>
<g clip-path="url(#clip0_1481_5311)">
<path d="M3.22925 18.2947C3.22925 18.0276 3.44577 17.811 3.71288 17.811H16.2874C16.5545 17.811 16.7711 18.0276 16.7711 18.2947V25.5492C16.7711 26.0834 16.338 26.5165 15.8038 26.5165H4.19652C3.66232 26.5165 3.22925 26.0834 3.22925 25.5492V18.2947Z" fill="#F6B22F"/>
<path fill-rule="evenodd" clip-rule="evenodd" d="M3.71288 17.3271H16.2874C16.8216 17.3271 17.2547 17.7602 17.2547 18.2944V25.549C17.2547 26.3503 16.6051 26.9999 15.8038 26.9999H4.19651C3.3952 26.9999 2.74561 26.3503 2.74561 25.549V18.2944C2.74561 17.7602 3.17868 17.3271 3.71288 17.3271ZM3.71288 17.8108C3.44577 17.8108 3.22924 18.0273 3.22924 18.2944V25.549C3.22924 26.0832 3.66231 26.5162 4.19651 26.5162H15.8038C16.338 26.5162 16.7711 26.0832 16.7711 25.549V18.2944C16.7711 18.0273 16.5545 17.8108 16.2874 17.8108H3.71288Z" fill="#E68C06"/>
<path fill-rule="evenodd" clip-rule="evenodd" d="M3.66748 20.0532C3.80103 20.0532 3.9093 20.1615 3.9093 20.295V24.7082C3.9093 24.8418 3.80103 24.95 3.66748 24.95C3.53392 24.95 3.42566 24.8418 3.42566 24.7082V20.295C3.42566 20.1615 3.53392 20.0532 3.66748 20.0532Z" fill="#FFC24A"/>
<path fill-rule="evenodd" clip-rule="evenodd" d="M3.3147 25.9474C3.46649 26.283 3.80421 26.5165 4.19649 26.5165H15.8038C16.338 26.5165 16.771 26.0834 16.771 25.5492V18.2947C16.771 18.0276 16.5545 17.811 16.2874 17.811V25.0656C16.2874 25.5998 15.8543 26.0329 15.3201 26.0329H3.71285C3.57093 26.0329 3.43614 26.0023 3.3147 25.9474Z" fill="#E7A320"/>
<path d="M3.22925 17.3271H16.7711V19.7151H3.22925V17.3271Z" fill="#E7A320"/>
<path d="M15.2228 21.6113C15.2228 21.7408 15.1178 21.8458 14.9883 21.8458C14.8587 21.8458 14.7537 21.7408 14.7537 21.6113C14.7537 21.4818 14.8587 21.3768 14.9883 21.3768C15.1178 21.3768 15.2228 21.4818 15.2228 21.6113ZM15.6557 25.5865C15.6557 25.7161 15.5507 25.8211 15.4212 25.8211C15.2917 25.8211 15.1867 25.7161 15.1867 25.5865C15.1867 25.457 15.2917 25.352 15.4212 25.352C15.5507 25.352 15.6557 25.457 15.6557 25.5865ZM16.1726 22.1624C16.1726 22.3373 16.0309 22.4791 15.856 22.4791C15.6812 22.4791 15.5394 22.3373 15.5394 22.1624C15.5394 21.9876 15.6812 21.8458 15.856 21.8458C16.0309 21.8458 16.1726 21.9876 16.1726 22.1624ZM16.0143 21.1335C16.0143 21.2646 15.908 21.3709 15.7769 21.3709C15.6457 21.3709 15.5394 21.2646 15.5394 21.1335C15.5394 21.0023 15.6457 20.896 15.7769 20.896C15.908 20.896 16.0143 21.0023 16.0143 21.1335ZM16.2074 23.5227C16.2074 23.7947 15.9869 24.0152 15.7149 24.0152C15.4429 24.0152 15.2224 23.7947 15.2224 23.5227C15.2224 23.2507 15.4429 23.0302 15.7149 23.0302C15.9869 23.0302 16.2074 23.2507 16.2074 23.5227ZM15.2228 22.6374C15.2228 22.8122 15.081 22.954 14.9062 22.954C14.7313 22.954 14.5896 22.8122 14.5896 22.6374C14.5896 22.4625 14.7313 22.3208 14.9062 22.3208C15.081 22.3208 15.2228 22.4625 15.2228 22.6374ZM16.2875 24.8068C16.2875 24.9817 16.1457 25.1234 15.9709 25.1234C15.796 25.1234 15.6543 24.9817 15.6543 24.8068C15.6543 24.632 15.796 24.4902 15.9709 24.4902C16.1457 24.4902 16.2875 24.632 16.2875 24.8068ZM15.3724 24.5488C15.3724 24.6548 15.2864 24.7408 15.1803 24.7408C15.0743 24.7408 14.9883 24.6548 14.9883 24.5488C14.9883 24.4427 15.0743 24.3567 15.1803 24.3567C15.2864 24.3567 15.3724 24.4427 15.3724 24.5488ZM14.7064 25.1527C14.7064 25.3275 14.5646 25.4693 14.3898 25.4693C14.2149 25.4693 14.0732 25.3275 14.0732 25.1527C14.0732 24.9778 14.2149 24.8361 14.3898 24.8361C14.5646 24.8361 14.7064 24.9778 14.7064 25.1527ZM14.7537 24.0738C14.7537 24.2487 14.612 24.3905 14.4371 24.3905C14.2623 24.3905 14.1205 24.2487 14.1205 24.0738C14.1205 23.899 14.2623 23.7572 14.4371 23.7572C14.612 23.7572 14.7537 23.899 14.7537 24.0738ZM13.5929 25.5836C13.5929 25.7148 13.4865 25.8211 13.3554 25.8211C13.2242 25.8211 13.1179 25.7148 13.1179 25.5836C13.1179 25.4525 13.2242 25.3462 13.3554 25.3462C13.4865 25.3462 13.5929 25.4525 13.5929 25.5836Z" fill="#E88E07"/>
<path d="M1.29468 16.1181C1.29468 15.0497 2.1608 14.1836 3.22922 14.1836H16.771C17.8395 14.1836 18.7056 15.0497 18.7056 16.1181V18.0527C18.7056 18.3198 18.4891 18.5363 18.2219 18.5363H1.77831C1.5112 18.5363 1.29468 18.3198 1.29468 18.0527V16.1181Z" fill="#FFC658"/>
<path fill-rule="evenodd" clip-rule="evenodd" d="M3.22922 13.7002H16.771C18.1066 13.7002 19.1892 14.7829 19.1892 16.1184V18.0529C19.1892 18.5871 18.7561 19.0202 18.2219 19.0202H1.77831C1.24411 19.0202 0.811035 18.5871 0.811035 18.0529V16.1184C0.811035 14.7829 1.8937 13.7002 3.22922 13.7002ZM3.22922 14.1838C2.16079 14.1838 1.29467 15.05 1.29467 16.1184V18.0529C1.29467 18.32 1.5112 18.5366 1.77831 18.5366H18.2219C18.4891 18.5366 18.7056 18.32 18.7056 18.0529V16.1184C18.7056 15.05 17.8395 14.1838 16.771 14.1838H3.22922Z" fill="#CF8C0B"/>
<path fill-rule="evenodd" clip-rule="evenodd" d="M1.35938 18.2947C1.443 18.4392 1.59928 18.5365 1.7783 18.5365H18.2219C18.489 18.5365 18.7056 18.32 18.7056 18.0529V16.1183C18.7056 15.2645 18.1524 14.5398 17.3849 14.2832C17.8906 14.6322 18.2219 15.2157 18.2219 15.8765V17.811C18.2219 18.0782 18.0054 18.2947 17.7383 18.2947H1.35938Z" fill="#F2B43D"/>
<path d="M9.09326 14.1836H11.0979V26.5163H9.09326V14.1836Z" fill="#FF4646"/>
<path fill-rule="evenodd" clip-rule="evenodd" d="M8.60962 13.7002H11.5815V27.0002H8.60962V13.7002ZM9.09326 14.1838V26.5166H11.0979V14.1838H9.09326Z" fill="#CD2222"/>
<path fill-rule="evenodd" clip-rule="evenodd" d="M9.57702 15.1509C9.71058 15.1509 9.81884 15.2591 9.81884 15.3927V19.1409C9.81884 19.2744 9.71058 19.3827 9.57702 19.3827C9.44347 19.3827 9.33521 19.2744 9.33521 19.1409V15.3927C9.33521 15.2591 9.44347 15.1509 9.57702 15.1509Z" fill="#FF7575"/>
<path fill-rule="evenodd" clip-rule="evenodd" d="M10.3326 17.9619C10.4662 17.9619 10.5745 18.0702 10.5745 18.2037V25.821C10.5745 25.9546 10.4662 26.0628 10.3326 26.0628C10.1991 26.0628 10.0908 25.9546 10.0908 25.821V18.2037C10.0908 18.0702 10.1991 17.9619 10.3326 17.9619Z" fill="#F02E2E"/>
<path d="M5.06328 15.2745C5.28444 15.8869 3.92995 15.5281 3.53615 16.0868C2.88626 17.0087 1.95814 17.0882 1.737 16.4759C1.51583 15.8635 1.86194 15.0734 2.78047 14.7417C3.69901 14.4099 4.84213 14.6622 5.06328 15.2745Z" fill="#FFE68F"/>
<path d="M5.20801 13.9558C7.03144 13.4129 8.90553 13.6698 9.66123 13.9558L10.5983 13.4129C7.57555 12.1131 6.83496 12.2794 6.01885 12.2793L5.20801 13.9558Z" fill="#DC2C2C"/>
<path fill-rule="evenodd" clip-rule="evenodd" d="M9.90366 14.3741C9.77789 14.447 9.626 14.4594 9.49008 14.408C8.83059 14.1585 7.06508 13.9074 5.34602 14.4192C5.16236 14.4739 4.96375 14.415 4.8396 14.269C4.71548 14.1231 4.68919 13.9176 4.77262 13.7451L5.58346 12.0687C5.66423 11.9017 5.83338 11.7956 6.01885 11.7957C6.08985 11.7957 6.16365 11.7941 6.24157 11.7924C6.57494 11.7853 6.98342 11.7766 7.5676 11.8828C8.28295 12.0129 9.26127 12.3114 10.7893 12.9685C10.9573 13.0407 11.0702 13.2015 11.0811 13.3841C11.0919 13.5666 10.9989 13.7396 10.8407 13.8313L9.90366 14.3741ZM10.0386 13.1781C7.7525 12.2454 6.95215 12.2618 6.2634 12.2759C6.18106 12.2776 6.10035 12.2793 6.01885 12.2793L5.20801 13.9557C5.41167 13.895 5.61598 13.8444 5.81928 13.8026C7.43612 13.4706 8.98993 13.7017 9.66121 13.9557L10.5983 13.4128C10.4024 13.3286 10.216 13.2505 10.0386 13.1781Z" fill="#B31B1B"/>
<path d="M15.4232 14.034C13.2741 13.4578 11.7337 13.5178 10.6282 13.8215L9.97913 13.6177C12.7415 12.1582 13.7943 12.5396 14.5094 12.6699L15.4232 14.034Z" fill="#BF2222"/>
<path fill-rule="evenodd" clip-rule="evenodd" d="M10.4745 14.282C10.5633 14.3098 10.6587 14.3114 10.7492 14.2865C11.7533 14.0107 13.2037 13.9411 15.289 14.5001C15.4841 14.5524 15.6934 14.4777 15.8137 14.3129C15.9341 14.1482 15.9398 13.9281 15.8283 13.7616L14.9144 12.3974C14.8433 12.2913 14.732 12.2186 14.6053 12.1955C14.5574 12.1868 14.5054 12.1762 14.4489 12.1647C14.1194 12.0976 13.6403 12.0001 12.9717 12.0679C12.1922 12.147 11.1762 12.4434 9.75793 13.1928C9.58428 13.2845 9.48093 13.4699 9.49565 13.6632C9.5104 13.8565 9.64036 14.02 9.82544 14.0781L10.4745 14.282ZM10.6433 13.8176C11.623 13.5513 12.9424 13.4766 14.7212 13.8634C14.9477 13.9127 15.1816 13.9694 15.4232 14.0342L14.5094 12.6701C14.4542 12.66 14.397 12.6484 14.3371 12.6364C13.6829 12.5042 12.7128 12.3083 10.6029 13.3052C10.4052 13.3986 10.1975 13.5025 9.97914 13.6179L10.6282 13.8217C10.6333 13.8203 10.6383 13.819 10.6433 13.8176Z" fill="#9D1818"/>
<path fill-rule="evenodd" clip-rule="evenodd" d="M14.1763 12.8437C14.0693 12.9254 14.0477 13.0771 14.1279 13.1825L14.4515 13.6073C14.5317 13.7127 14.6835 13.7318 14.7905 13.65C14.8975 13.5683 14.9191 13.4166 14.8389 13.3112L14.5153 12.8864C14.4351 12.7811 14.2833 12.7619 14.1763 12.8437Z" fill="#DE3838"/>
<path d="M2.87231 11.637C5.88392 11.5295 8.16197 12.9393 9.07908 13.6282L9.67345 13.4053C7.67765 10.8464 4.56274 9.93617 3.68845 9.89893L3.50706 10.8209L2.87231 11.637Z" fill="#EA2F2F"/>
<path fill-rule="evenodd" clip-rule="evenodd" d="M9.24888 14.0808C9.09422 14.1388 8.92067 14.1138 8.78861 14.0146C7.9134 13.3572 5.74373 12.0182 2.88955 12.1201C2.70185 12.1268 2.52724 12.0242 2.44171 11.857C2.3562 11.6897 2.37523 11.4881 2.49055 11.3398L3.05471 10.6144L3.2139 9.80532C3.26002 9.57092 3.47038 9.40533 3.70903 9.41548C4.23474 9.43787 5.29869 9.70189 6.47156 10.2712C7.65646 10.8462 8.99998 11.7552 10.0548 13.1076C10.1495 13.229 10.1807 13.3882 10.1389 13.5363C10.0972 13.6844 9.98737 13.8039 9.84325 13.8579L9.24888 14.0808ZM3.50706 10.8206L2.87231 11.6368C3.08044 11.6293 3.28507 11.6292 3.486 11.6355C6.1923 11.7207 8.22537 12.9867 9.07908 13.6279L9.67345 13.405C9.56743 13.2691 9.45828 13.1379 9.34646 13.0111C7.35308 10.7519 4.51631 9.93396 3.68845 9.89868L3.50706 10.8206Z" fill="#B31B1B"/>
<path fill-rule="evenodd" clip-rule="evenodd" d="M4.90484 11.6494C4.31769 11.4925 3.8496 11.4803 3.70794 11.4908C3.57475 11.5005 3.45882 11.4005 3.44903 11.2673C3.43923 11.1341 3.53927 11.0182 3.67247 11.0084C3.87337 10.9936 4.39574 11.0127 5.02974 11.1822C5.15878 11.2167 5.23541 11.3493 5.20093 11.4783C5.16642 11.6073 5.03388 11.6839 4.90484 11.6494Z" fill="#FF4444"/>
<path d="M17.2053 11.9718C14.5469 11.8769 12.8796 12.6582 12.07 13.2663L11.0729 13.2595C12.8346 11.0006 15.7805 10.236 16.5523 10.2031L16.5463 11.0837L17.2053 11.9718Z" fill="#D92525"/>
<path fill-rule="evenodd" clip-rule="evenodd" d="M12.0667 13.7501C12.1726 13.7509 12.2758 13.7168 12.3605 13.6532C13.0771 13.1149 14.6346 12.3643 17.1881 12.4554C17.3738 12.462 17.5469 12.3616 17.6334 12.1971C17.7199 12.0326 17.7044 11.8331 17.5937 11.6838L17.031 10.9256L17.0359 10.2067C17.0368 10.0743 16.9834 9.94728 16.8881 9.85534C16.7928 9.76338 16.664 9.71453 16.5317 9.72017C16.0656 9.74002 15.0742 9.96196 13.9841 10.4563C12.8846 10.9549 11.6349 11.7527 10.6915 12.9623C10.5782 13.1075 10.5573 13.3046 10.6375 13.4704C10.7178 13.6362 10.8853 13.7421 11.0696 13.7433L12.0667 13.7501ZM16.5463 11.084L17.2053 11.972C16.9968 11.9646 16.7945 11.9626 16.5981 11.9654C14.2906 11.9986 12.8161 12.7061 12.07 13.2665L11.0729 13.2597C11.2043 13.0912 11.3423 12.9311 11.4855 12.7789C12.9734 11.1976 15.0221 10.4798 16.0682 10.2704C16.271 10.2298 16.4362 10.2083 16.5522 10.2034L16.5463 11.084Z" fill="#B31B1B"/>
<path fill-rule="evenodd" clip-rule="evenodd" d="M16.1027 10.3193C16.2362 10.3193 16.3445 10.4276 16.3445 10.5612V10.9214C16.3445 11.0549 16.2362 11.1632 16.1027 11.1632C15.9691 11.1632 15.8608 11.0549 15.8608 10.9214V10.5612C15.8608 10.4276 15.9691 10.3193 16.1027 10.3193Z" fill="#FF5252"/>
<path d="M11.5459 8.66737C9.25198 9.91084 9.69792 12.6573 9.6979 13.4584L10.1815 13.5339C10.3821 11.5692 11.7465 9.18121 12.7894 10.2392C13.492 10.9519 11.114 13.4743 10.102 13.9269H10.9042C12.1476 13.7606 14.0392 12.0356 14.4072 10.4508C14.688 9.24166 13.8323 7.42803 11.5459 8.66737Z" fill="#E33030"/>
<path fill-rule="evenodd" clip-rule="evenodd" d="M9.61824 13.9352C9.3853 13.8963 9.21416 13.6947 9.21416 13.4581C9.21416 13.3912 9.20921 13.2949 9.20304 13.1751C9.17963 12.7211 9.13893 11.9313 9.28613 11.1401C9.47886 10.104 10.0016 8.95409 11.3154 8.24193C11.9383 7.90423 12.5066 7.75087 13.0147 7.76959C13.532 7.78865 13.9578 7.98568 14.2755 8.2931C14.8889 8.88674 15.0478 9.82978 14.8782 10.5599C14.6655 11.4758 14.0322 12.3816 13.3196 13.0687C12.6149 13.7481 11.7394 14.3029 10.9682 14.406C10.9469 14.4089 10.9255 14.4103 10.9041 14.4103H10.1018C9.87363 14.4103 9.67647 14.2508 9.62886 14.0276C9.62226 13.9967 9.6188 13.9658 9.61824 13.9352ZM11.0263 13.9058C12.2679 13.6493 14.0509 11.9843 14.4071 10.4505C14.6879 9.24142 13.8322 7.42778 11.5458 8.66712C9.51704 9.76686 9.63132 12.0423 9.68486 13.1077C9.69185 13.247 9.6978 13.3655 9.6978 13.4581L10.1814 13.5337C10.1845 13.5036 10.1879 13.4733 10.1915 13.443C10.1969 13.3975 10.2029 13.3518 10.2096 13.306C10.2216 13.2228 10.2355 13.139 10.2513 13.0551C10.5986 11.2083 11.83 9.26577 12.7893 10.2389C13.3524 10.8102 11.9364 12.5442 10.831 13.443C10.7742 13.4892 10.7182 13.5331 10.6634 13.5746C10.6602 13.577 10.657 13.5795 10.6538 13.5819C10.4566 13.7305 10.2742 13.8466 10.1214 13.9177C10.1148 13.9208 10.1083 13.9238 10.1018 13.9266H10.9041C10.9442 13.9213 10.9849 13.9143 11.0263 13.9058ZM10.7923 12.8395C11.1077 12.5563 11.4337 12.218 11.7138 11.8746C12.0172 11.5027 12.2463 11.1494 12.3602 10.8698C12.4404 10.6727 12.436 10.5891 12.4315 10.5652C12.359 10.4953 12.3061 10.4742 12.276 10.4671C12.2456 10.46 12.2046 10.4593 12.1422 10.4831C11.998 10.538 11.7926 10.7056 11.5659 11.0299C11.2406 11.4952 10.9572 12.1599 10.7923 12.8395Z" fill="#BC2020"/>
<path fill-rule="evenodd" clip-rule="evenodd" d="M10.7156 9.4865C11.7813 8.10932 13.1095 8.34727 13.2213 8.36964C13.3523 8.39585 13.4372 8.52324 13.411 8.65419C13.3849 8.78515 13.2574 8.87008 13.1265 8.84389C13.0873 8.83606 11.9972 8.62057 11.0981 9.78249C11.0164 9.88811 10.8645 9.90748 10.7589 9.82575C10.6533 9.74401 10.6339 9.59213 10.7156 9.4865Z" fill="#FF4444"/>
<path fill-rule="evenodd" clip-rule="evenodd" d="M3.39536 15.0555C3.39931 15.189 3.29426 15.3004 3.16078 15.3043C2.86629 15.313 2.6576 15.5157 2.51918 15.7095C2.44156 15.8181 2.29052 15.8433 2.18185 15.7657C2.07318 15.6881 2.048 15.537 2.12563 15.4284C2.28948 15.199 2.61884 14.8364 3.14656 14.8209C3.28004 14.817 3.39145 14.922 3.39536 15.0555Z" fill="white"/>
<path d="M5.2846 9.74999C6.01003 11.7148 8.35267 13.0599 9.96983 13.9214C8.45431 12.9591 6.99933 11.1912 6.58437 10.415C6.16941 9.63875 6.44835 8.61647 7.55165 8.81295C8.98031 9.06736 9.85272 12.4023 10.3174 13.8264C10.3729 13.0107 10.1719 10.1066 8.9723 8.63158C7.12844 6.36454 4.58004 7.8418 5.2846 9.74999Z" fill="#F23535"/>
<path fill-rule="evenodd" clip-rule="evenodd" d="M10.262 14.3071C10.116 14.4176 9.91377 14.4396 9.74249 14.3483C8.93076 13.9159 7.90854 13.3476 6.99428 12.63C6.08405 11.9155 5.23817 11.0205 4.83097 9.91766C4.38426 8.70777 4.98037 7.59771 5.98703 7.17871C7.00206 6.75622 8.3183 7.06104 9.34758 8.32656C10.0242 9.15849 10.3929 10.3495 10.5906 11.3857C10.7901 12.4306 10.8311 13.4027 10.8 13.8594C10.7843 14.0904 10.607 14.2779 10.3772 14.3065C10.3383 14.3113 10.2996 14.3114 10.262 14.3071ZM10.1741 11.8087C9.99674 10.7106 9.63856 9.4508 8.97237 8.63171C7.12851 6.36468 4.58011 7.84194 5.28467 9.75012C5.67228 10.7999 6.52154 11.6728 7.47515 12.3895C8.24936 12.9714 9.09234 13.4504 9.81288 13.8375C9.86591 13.866 9.91827 13.894 9.9699 13.9215C9.91493 13.8866 9.86006 13.8506 9.80529 13.8137C9.07897 13.3238 8.37484 12.6626 7.80202 12.0301C7.22732 11.3955 6.78474 10.7898 6.58444 10.4151C6.16948 9.63889 6.44842 8.6166 7.55171 8.81308C8.49904 8.98177 9.20178 10.5049 9.70327 11.9273C9.87467 12.4134 10.0225 12.8878 10.1486 13.2923C10.1714 13.3653 10.1935 13.436 10.2148 13.5041C10.217 13.5112 10.2192 13.5182 10.2214 13.5253C10.2552 13.6329 10.2872 13.7338 10.3175 13.8266C10.3219 13.7616 10.3247 13.6833 10.3255 13.5936C10.3291 13.1825 10.2907 12.5305 10.1741 11.8087ZM9.56057 13.0333C9.36658 12.4195 9.1342 11.7203 8.85272 11.0744C8.6325 10.569 8.39409 10.1259 8.1403 9.80146C7.88064 9.46952 7.65253 9.32227 7.46693 9.28922C7.26533 9.25331 7.14493 9.28037 7.07872 9.31079C7.0158 9.33971 6.96915 9.38616 6.93561 9.45677C6.86041 9.61514 6.85787 9.90075 7.01096 10.1871C7.19143 10.5247 7.62902 11.1267 8.22078 11.7715C8.62326 12.2101 9.08298 12.653 9.56057 13.0333Z" fill="#BC2020"/>
<path fill-rule="evenodd" clip-rule="evenodd" d="M6.33123 7.87624C6.40614 7.98682 6.37722 8.13716 6.26666 8.21207C6.02583 8.3752 5.56106 8.9428 5.88937 9.83245C5.93561 9.95776 5.87153 10.0968 5.74624 10.143C5.62093 10.1893 5.48189 10.1252 5.43565 9.99991C5.01433 8.85828 5.61153 8.0717 5.99541 7.81165C6.10597 7.73676 6.25633 7.76567 6.33123 7.87624Z" fill="#FF7878"/>
</g>
<g filter="url(#filter0_d_1481_5311)">
<mask id="path-35-outside-1_1481_5311" maskUnits="userSpaceOnUse" x="0" y="29" width="40" height="15" fill="black">
<rect fill="white" y="29" width="40" height="15"/>
<path d="M3.664 32.504H3.76C5.164 32.504 5.872 33.092 5.872 34.28V39.32C5.872 40.316 5.368 40.892 4.372 41.048V42.2H3.1V41.06C2.068 40.904 1.552 40.316 1.552 39.32V34.28C1.552 33.092 2.26 32.504 3.664 32.504ZM4.48 39.104V34.496C4.48 33.98 4.228 33.728 3.712 33.728C3.196 33.728 2.944 33.98 2.944 34.496V39.104C2.944 39.62 3.196 39.872 3.712 39.872C4.228 39.872 4.48 39.62 4.48 39.104ZM11.2258 32.6V39.32C11.2258 40.508 10.5298 41.096 9.13778 41.096H9.08978C7.69778 41.096 7.00178 40.508 7.00178 39.32V32.6H8.39378V39.104C8.39378 39.62 8.63378 39.872 9.11378 39.872C9.59378 39.872 9.83378 39.62 9.83378 39.104V32.6H11.2258ZM14.9504 31.94H13.9184L12.5144 30.248H14.0984L14.9504 31.94ZM15.3104 41L15.0104 39.128H13.4744L13.1744 41H11.8304L13.3904 32.6H15.1424L16.7264 41H15.3104ZM13.6544 37.976H14.8304L14.2424 34.244L13.6544 37.976ZM22.945 32.6V33.824H21.541V41H20.149V33.824H18.745V32.6H22.945ZM26.1151 41L25.8151 39.128H24.2791L23.9791 41H22.6351L24.1951 32.6H25.9471L27.5311 41H26.1151ZM24.4591 37.976H25.6351L25.0471 34.244L24.4591 37.976ZM26.1391 30.872V31.208C26.1391 31.7 25.8031 31.952 25.1431 31.952H25.0231C24.3631 31.952 24.0271 31.7 24.0271 31.196V30.872H24.8551V31.04C24.8551 31.196 24.9271 31.28 25.0591 31.28H25.1071C25.2391 31.28 25.3111 31.196 25.3111 31.04V30.872H26.1391ZM25.7671 41.624V42.836H24.3991V41.624H25.7671ZM29.497 41H28.225V32.6H29.617L31.381 37.796V32.6H32.653V41H31.333L29.497 35.54V41ZM38.122 36.68V39.32C38.122 40.508 37.414 41.096 36.01 41.096H35.914C34.51 41.096 33.802 40.508 33.802 39.32V34.28C33.802 33.092 34.51 32.504 35.914 32.504H36.01C37.414 32.504 38.122 33.092 38.122 34.28V35.48H36.73V34.496C36.73 33.98 36.478 33.728 35.962 33.728C35.446 33.728 35.194 33.98 35.194 34.496V39.104C35.194 39.62 35.446 39.872 35.962 39.872C36.478 39.872 36.73 39.62 36.73 39.104V37.856H35.914V36.68H38.122Z"/>
</mask>
<path d="M3.664 32.504H3.76C5.164 32.504 5.872 33.092 5.872 34.28V39.32C5.872 40.316 5.368 40.892 4.372 41.048V42.2H3.1V41.06C2.068 40.904 1.552 40.316 1.552 39.32V34.28C1.552 33.092 2.26 32.504 3.664 32.504ZM4.48 39.104V34.496C4.48 33.98 4.228 33.728 3.712 33.728C3.196 33.728 2.944 33.98 2.944 34.496V39.104C2.944 39.62 3.196 39.872 3.712 39.872C4.228 39.872 4.48 39.62 4.48 39.104ZM11.2258 32.6V39.32C11.2258 40.508 10.5298 41.096 9.13778 41.096H9.08978C7.69778 41.096 7.00178 40.508 7.00178 39.32V32.6H8.39378V39.104C8.39378 39.62 8.63378 39.872 9.11378 39.872C9.59378 39.872 9.83378 39.62 9.83378 39.104V32.6H11.2258ZM14.9504 31.94H13.9184L12.5144 30.248H14.0984L14.9504 31.94ZM15.3104 41L15.0104 39.128H13.4744L13.1744 41H11.8304L13.3904 32.6H15.1424L16.7264 41H15.3104ZM13.6544 37.976H14.8304L14.2424 34.244L13.6544 37.976ZM22.945 32.6V33.824H21.541V41H20.149V33.824H18.745V32.6H22.945ZM26.1151 41L25.8151 39.128H24.2791L23.9791 41H22.6351L24.1951 32.6H25.9471L27.5311 41H26.1151ZM24.4591 37.976H25.6351L25.0471 34.244L24.4591 37.976ZM26.1391 30.872V31.208C26.1391 31.7 25.8031 31.952 25.1431 31.952H25.0231C24.3631 31.952 24.0271 31.7 24.0271 31.196V30.872H24.8551V31.04C24.8551 31.196 24.9271 31.28 25.0591 31.28H25.1071C25.2391 31.28 25.3111 31.196 25.3111 31.04V30.872H26.1391ZM25.7671 41.624V42.836H24.3991V41.624H25.7671ZM29.497 41H28.225V32.6H29.617L31.381 37.796V32.6H32.653V41H31.333L29.497 35.54V41ZM38.122 36.68V39.32C38.122 40.508 37.414 41.096 36.01 41.096H35.914C34.51 41.096 33.802 40.508 33.802 39.32V34.28C33.802 33.092 34.51 32.504 35.914 32.504H36.01C37.414 32.504 38.122 33.092 38.122 34.28V35.48H36.73V34.496C36.73 33.98 36.478 33.728 35.962 33.728C35.446 33.728 35.194 33.98 35.194 34.496V39.104C35.194 39.62 35.446 39.872 35.962 39.872C36.478 39.872 36.73 39.62 36.73 39.104V37.856H35.914V36.68H38.122Z" fill="white"/>
<path d="M4.372 41.048L4.21726 40.06C3.73065 40.1363 3.372 40.5555 3.372 41.048H4.372ZM4.372 42.2V43.2C4.92428 43.2 5.372 42.7523 5.372 42.2H4.372ZM3.1 42.2H2.1C2.1 42.7523 2.54772 43.2 3.1 43.2V42.2ZM3.1 41.06H4.1C4.1 40.5654 3.73847 40.1452 3.24946 40.0712L3.1 41.06ZM3.664 33.504H3.76V31.504H3.664V33.504ZM3.76 33.504C4.34682 33.504 4.60193 33.6306 4.70007 33.7128C4.76438 33.7668 4.872 33.8908 4.872 34.28H6.872C6.872 33.4812 6.62562 32.7172 5.98493 32.1802C5.37807 31.6714 4.57718 31.504 3.76 31.504V33.504ZM4.872 34.28V39.32H6.872V34.28H4.872ZM4.872 39.32C4.872 39.6504 4.79079 39.7855 4.74098 39.8427C4.68905 39.9024 4.55858 40.0066 4.21726 40.06L4.52674 42.036C5.18142 41.9334 5.80095 41.6716 6.25002 41.1553C6.70121 40.6365 6.872 39.9856 6.872 39.32H4.872ZM3.372 41.048V42.2H5.372V41.048H3.372ZM4.372 41.2H3.1V43.2H4.372V41.2ZM4.1 42.2V41.06H2.1V42.2H4.1ZM3.24946 40.0712C2.88803 40.0166 2.7451 39.9068 2.68726 39.8416C2.63331 39.7807 2.552 39.645 2.552 39.32H0.552C0.552 39.991 0.72869 40.6473 1.19074 41.1684C1.6489 41.6852 2.27997 41.9474 2.95054 42.0488L3.24946 40.0712ZM2.552 39.32V34.28H0.552V39.32H2.552ZM2.552 34.28C2.552 33.8908 2.65962 33.7668 2.72393 33.7128C2.82207 33.6306 3.07718 33.504 3.664 33.504V31.504C2.84682 31.504 2.04593 31.6714 1.43907 32.1802C0.79838 32.7172 0.552 33.4812 0.552 34.28H2.552ZM5.48 39.104V34.496H3.48V39.104H5.48ZM5.48 34.496C5.48 34.0898 5.38073 33.5955 4.99661 33.2114C4.61248 32.8273 4.1182 32.728 3.712 32.728V34.728C3.8218 34.728 3.71152 34.7547 3.58239 34.6256C3.45327 34.4965 3.48 34.3862 3.48 34.496H5.48ZM3.712 32.728C3.3058 32.728 2.81152 32.8273 2.42739 33.2114C2.04327 33.5955 1.944 34.0898 1.944 34.496H3.944C3.944 34.3862 3.97073 34.4965 3.84161 34.6256C3.71248 34.7547 3.6022 34.728 3.712 34.728V32.728ZM1.944 34.496V39.104H3.944V34.496H1.944ZM1.944 39.104C1.944 39.5102 2.04327 40.0045 2.42739 40.3886C2.81152 40.7727 3.3058 40.872 3.712 40.872V38.872C3.6022 38.872 3.71248 38.8453 3.84161 38.9744C3.97073 39.1035 3.944 39.2138 3.944 39.104H1.944ZM3.712 40.872C4.1182 40.872 4.61248 40.7727 4.99661 40.3886C5.38073 40.0045 5.48 39.5102 5.48 39.104H3.48C3.48 39.2138 3.45327 39.1035 3.58239 38.9744C3.71152 38.8453 3.8218 38.872 3.712 38.872V40.872ZM11.2258 32.6H12.2258C12.2258 32.0477 11.7781 31.6 11.2258 31.6V32.6ZM7.00178 32.6V31.6C6.4495 31.6 6.00178 32.0477 6.00178 32.6H7.00178ZM8.39378 32.6H9.39378C9.39378 32.0477 8.94607 31.6 8.39378 31.6V32.6ZM9.83378 32.6V31.6C9.2815 31.6 8.83378 32.0477 8.83378 32.6H9.83378ZM10.2258 32.6V39.32H12.2258V32.6H10.2258ZM10.2258 39.32C10.2258 39.7146 10.1178 39.8392 10.0565 39.8912C9.96367 39.9701 9.7171 40.096 9.13778 40.096V42.096C9.95047 42.096 10.7479 41.9279 11.351 41.4158C11.9858 40.8768 12.2258 40.1134 12.2258 39.32H10.2258ZM9.13778 40.096H9.08978V42.096H9.13778V40.096ZM9.08978 40.096C8.51047 40.096 8.26389 39.9701 8.17105 39.8912C8.10979 39.8392 8.00178 39.7146 8.00178 39.32H6.00178C6.00178 40.1134 6.24177 40.8768 6.87651 41.4158C7.47967 41.9279 8.2771 42.096 9.08978 42.096V40.096ZM8.00178 39.32V32.6H6.00178V39.32H8.00178ZM7.00178 33.6H8.39378V31.6H7.00178V33.6ZM7.39378 32.6V39.104H9.39378V32.6H7.39378ZM7.39378 39.104C7.39378 39.4987 7.48413 39.9828 7.84558 40.3669C8.21797 40.7625 8.70672 40.872 9.11378 40.872V38.872C9.07835 38.872 9.09023 38.867 9.13088 38.8813C9.17719 38.8976 9.24242 38.9329 9.30198 38.9961C9.42344 39.1252 9.39378 39.2253 9.39378 39.104H7.39378ZM9.11378 40.872C9.52084 40.872 10.0096 40.7625 10.382 40.3669C10.7434 39.9828 10.8338 39.4987 10.8338 39.104H8.83378C8.83378 39.2253 8.80413 39.1252 8.92558 38.9961C8.98514 38.9329 9.05037 38.8976 9.09668 38.8813C9.13733 38.867 9.14921 38.872 9.11378 38.872V40.872ZM10.8338 39.104V32.6H8.83378V39.104H10.8338ZM9.83378 33.6H11.2258V31.6H9.83378V33.6ZM14.9504 31.94V32.94C15.2975 32.94 15.6197 32.76 15.8018 32.4645C15.9838 32.169 15.9996 31.8003 15.8435 31.4903L14.9504 31.94ZM13.9184 31.94L13.1488 32.5786C13.3388 32.8075 13.6209 32.94 13.9184 32.94V31.94ZM12.5144 30.248V29.248C12.1267 29.248 11.774 29.472 11.6092 29.8229C11.4444 30.1738 11.4973 30.5883 11.7448 30.8866L12.5144 30.248ZM14.0984 30.248L14.9915 29.7983C14.8216 29.4609 14.4761 29.248 14.0984 29.248V30.248ZM15.3104 41L14.323 41.1582C14.4007 41.6433 14.8192 42 15.3104 42V41ZM15.0104 39.128L15.9978 38.9698C15.92 38.4847 15.5016 38.128 15.0104 38.128V39.128ZM13.4744 39.128V38.128C12.9832 38.128 12.5647 38.4847 12.487 38.9698L13.4744 39.128ZM13.1744 41V42C13.6656 42 14.0841 41.6433 14.1618 41.1582L13.1744 41ZM11.8304 41L10.8472 40.8174C10.7929 41.1096 10.8714 41.4108 11.0614 41.6393C11.2514 41.8678 11.5332 42 11.8304 42V41ZM13.3904 32.6V31.6C12.9085 31.6 12.4952 31.9436 12.4072 32.4174L13.3904 32.6ZM15.1424 32.6L16.1251 32.4147C16.036 31.9422 15.6232 31.6 15.1424 31.6V32.6ZM16.7264 41V42C17.024 42 17.3062 41.8674 17.4962 41.6382C17.6862 41.4091 17.7642 41.1072 17.7091 40.8147L16.7264 41ZM13.6544 37.976L12.6666 37.8204C12.6211 38.1092 12.7042 38.4035 12.8942 38.6258C13.0842 38.848 13.362 38.976 13.6544 38.976V37.976ZM14.8304 37.976V38.976C15.1228 38.976 15.4005 38.848 15.5905 38.6258C15.7805 38.4035 15.8637 38.1092 15.8182 37.8204L14.8304 37.976ZM14.2424 34.244L15.2302 34.0884C15.1536 33.6022 14.7346 33.244 14.2424 33.244C13.7502 33.244 13.3312 33.6022 13.2546 34.0884L14.2424 34.244ZM14.9504 30.94H13.9184V32.94H14.9504V30.94ZM14.6879 31.3014L13.2839 29.6094L11.7448 30.8866L13.1488 32.5786L14.6879 31.3014ZM12.5144 31.248H14.0984V29.248H12.5144V31.248ZM13.2052 30.6977L14.0572 32.3897L15.8435 31.4903L14.9915 29.7983L13.2052 30.6977ZM16.2978 40.8418L15.9978 38.9698L14.023 39.2862L14.323 41.1582L16.2978 40.8418ZM15.0104 38.128H13.4744V40.128H15.0104V38.128ZM12.487 38.9698L12.187 40.8418L14.1618 41.1582L14.4618 39.2862L12.487 38.9698ZM13.1744 40H11.8304V42H13.1744V40ZM12.8136 41.1826L14.3736 32.7826L12.4072 32.4174L10.8472 40.8174L12.8136 41.1826ZM13.3904 33.6H15.1424V31.6H13.3904V33.6ZM14.1597 32.7853L15.7437 41.1853L17.7091 40.8147L16.1251 32.4147L14.1597 32.7853ZM16.7264 40H15.3104V42H16.7264V40ZM13.6544 38.976H14.8304V36.976H13.6544V38.976ZM15.8182 37.8204L15.2302 34.0884L13.2546 34.3996L13.8426 38.1316L15.8182 37.8204ZM13.2546 34.0884L12.6666 37.8204L14.6422 38.1316L15.2302 34.3996L13.2546 34.0884ZM22.945 32.6H23.945C23.945 32.0477 23.4973 31.6 22.945 31.6V32.6ZM22.945 33.824V34.824C23.4973 34.824 23.945 34.3763 23.945 33.824H22.945ZM21.541 33.824V32.824C20.9887 32.824 20.541 33.2717 20.541 33.824H21.541ZM21.541 41V42C22.0933 42 22.541 41.5523 22.541 41H21.541ZM20.149 41H19.149C19.149 41.5523 19.5967 42 20.149 42V41ZM20.149 33.824H21.149C21.149 33.2717 20.7013 32.824 20.149 32.824V33.824ZM18.745 33.824H17.745C17.745 34.3763 18.1927 34.824 18.745 34.824V33.824ZM18.745 32.6V31.6C18.1927 31.6 17.745 32.0477 17.745 32.6H18.745ZM21.945 32.6V33.824H23.945V32.6H21.945ZM22.945 32.824H21.541V34.824H22.945V32.824ZM20.541 33.824V41H22.541V33.824H20.541ZM21.541 40H20.149V42H21.541V40ZM21.149 41V33.824H19.149V41H21.149ZM20.149 32.824H18.745V34.824H20.149V32.824ZM19.745 33.824V32.6H17.745V33.824H19.745ZM18.745 33.6H22.945V31.6H18.745V33.6ZM26.1151 41L25.1277 41.1582C25.2054 41.6433 25.6239 42 26.1151 42V41ZM25.8151 39.128L26.8025 38.9698C26.7247 38.4847 26.3063 38.128 25.8151 38.128V39.128ZM24.2791 39.128V38.128C23.7879 38.128 23.3694 38.4847 23.2917 38.9698L24.2791 39.128ZM23.9791 41V42C24.4703 42 24.8887 41.6433 24.9665 41.1582L23.9791 41ZM22.6351 41L21.6519 40.8174C21.5976 41.1096 21.6761 41.4108 21.8661 41.6393C22.0561 41.8678 22.3379 42 22.6351 42V41ZM24.1951 32.6V31.6C23.7132 31.6 23.2999 31.9436 23.2119 32.4174L24.1951 32.6ZM25.9471 32.6L26.9297 32.4147C26.8406 31.9422 26.4279 31.6 25.9471 31.6V32.6ZM27.5311 41V42C27.8287 42 28.1109 41.8674 28.3009 41.6382C28.4909 41.4091 28.5689 41.1072 28.5137 40.8147L27.5311 41ZM24.4591 37.976L23.4712 37.8204C23.4257 38.1092 23.5089 38.4035 23.6989 38.6258C23.8889 38.848 24.1667 38.976 24.4591 38.976V37.976ZM25.6351 37.976V38.976C25.9275 38.976 26.2052 38.848 26.3952 38.6258C26.5852 38.4035 26.6684 38.1092 26.6229 37.8204L25.6351 37.976ZM25.0471 34.244L26.0349 34.0884C25.9583 33.6022 25.5393 33.244 25.0471 33.244C24.5549 33.244 24.1359 33.6022 24.0592 34.0884L25.0471 34.244ZM26.1391 30.872H27.1391C27.1391 30.3197 26.6913 29.872 26.1391 29.872V30.872ZM24.0271 30.872V29.872C23.4748 29.872 23.0271 30.3197 23.0271 30.872H24.0271ZM24.8551 30.872H25.8551C25.8551 30.3197 25.4073 29.872 24.8551 29.872V30.872ZM25.3111 30.872V29.872C24.7588 29.872 24.3111 30.3197 24.3111 30.872H25.3111ZM25.7671 41.624H26.7671C26.7671 41.0717 26.3193 40.624 25.7671 40.624V41.624ZM25.7671 42.836V43.836C26.3193 43.836 26.7671 43.3883 26.7671 42.836H25.7671ZM24.3991 42.836H23.3991C23.3991 43.3883 23.8468 43.836 24.3991 43.836V42.836ZM24.3991 41.624V40.624C23.8468 40.624 23.3991 41.0717 23.3991 41.624H24.3991ZM27.1025 40.8418L26.8025 38.9698L24.8277 39.2862L25.1277 41.1582L27.1025 40.8418ZM25.8151 38.128H24.2791V40.128H25.8151V38.128ZM23.2917 38.9698L22.9917 40.8418L24.9665 41.1582L25.2665 39.2862L23.2917 38.9698ZM23.9791 40H22.6351V42H23.9791V40ZM23.6183 41.1826L25.1783 32.7826L23.2119 32.4174L21.6519 40.8174L23.6183 41.1826ZM24.1951 33.6H25.9471V31.6H24.1951V33.6ZM24.9644 32.7853L26.5484 41.1853L28.5137 40.8147L26.9297 32.4147L24.9644 32.7853ZM27.5311 40H26.1151V42H27.5311V40ZM24.4591 38.976H25.6351V36.976H24.4591V38.976ZM26.6229 37.8204L26.0349 34.0884L24.0592 34.3996L24.6472 38.1316L26.6229 37.8204ZM24.0592 34.0884L23.4712 37.8204L25.4469 38.1316L26.0349 34.3996L24.0592 34.0884ZM25.1391 30.872V31.208H27.1391V30.872H25.1391ZM25.1391 31.208C25.1391 31.2178 25.1375 31.181 25.1645 31.1211C25.1938 31.056 25.2404 31.0005 25.2897 30.9636C25.3337 30.9307 25.3577 30.929 25.3329 30.9352C25.3071 30.9417 25.2475 30.952 25.1431 30.952V32.952C25.573 32.952 26.0738 32.8746 26.4874 32.5654C26.9534 32.2169 27.1391 31.7055 27.1391 31.208H25.1391ZM25.1431 30.952H25.0231V32.952H25.1431V30.952ZM25.0231 30.952C24.9185 30.952 24.8595 30.9417 24.8346 30.9354C24.8109 30.9294 24.8362 30.9317 24.881 30.9656C24.9312 31.0036 24.9766 31.0593 25.0044 31.1221C25.0297 31.1793 25.0271 31.2119 25.0271 31.196H23.0271C23.0271 31.6913 23.2069 32.2068 23.6741 32.5604C24.0896 32.8748 24.5936 32.952 25.0231 32.952V30.952ZM25.0271 31.196V30.872H23.0271V31.196H25.0271ZM24.0271 31.872H24.8551V29.872H24.0271V31.872ZM23.8551 30.872V31.04H25.8551V30.872H23.8551ZM23.8551 31.04C23.8551 31.2546 23.9029 31.5812 24.1463 31.867C24.4122 32.1791 24.7705 32.28 25.0591 32.28V30.28C25.2156 30.28 25.4719 30.3389 25.6688 30.57C25.8433 30.7748 25.8551 30.9814 25.8551 31.04H23.8551ZM25.0591 32.28H25.1071V30.28H25.0591V32.28ZM25.1071 32.28C25.3956 32.28 25.7539 32.1791 26.0198 31.867C26.2633 31.5812 26.3111 31.2546 26.3111 31.04H24.3111C24.3111 30.9814 24.3229 30.7748 24.4973 30.57C24.6942 30.3389 24.9505 30.28 25.1071 30.28V32.28ZM26.3111 31.04V30.872H24.3111V31.04H26.3111ZM25.3111 31.872H26.1391V29.872H25.3111V31.872ZM24.7671 41.624V42.836H26.7671V41.624H24.7671ZM25.7671 41.836H24.3991V43.836H25.7671V41.836ZM25.3991 42.836V41.624H23.3991V42.836H25.3991ZM24.3991 42.624H25.7671V40.624H24.3991V42.624ZM29.497 41V42C30.0493 42 30.497 41.5523 30.497 41H29.497ZM28.225 41H27.225C27.225 41.5523 27.6727 42 28.225 42V41ZM28.225 32.6V31.6C27.6727 31.6 27.225 32.0477 27.225 32.6H28.225ZM29.617 32.6L30.5639 32.2785C30.4262 31.8729 30.0454 31.6 29.617 31.6V32.6ZM31.381 37.796L30.4341 38.1175C30.5914 38.5809 31.061 38.8624 31.5439 38.7826C32.0268 38.7029 32.381 38.2854 32.381 37.796H31.381ZM31.381 32.6V31.6C30.8287 31.6 30.381 32.0477 30.381 32.6H31.381ZM32.653 32.6H33.653C33.653 32.0477 33.2053 31.6 32.653 31.6V32.6ZM32.653 41V42C33.2053 42 33.653 41.5523 33.653 41H32.653ZM31.333 41L30.3852 41.3187C30.522 41.7258 30.9035 42 31.333 42V41ZM29.497 35.54L30.4448 35.2213C30.2887 34.7569 29.819 34.474 29.3355 34.5531C28.852 34.6322 28.497 35.05 28.497 35.54H29.497ZM29.497 40H28.225V42H29.497V40ZM29.225 41V32.6H27.225V41H29.225ZM28.225 33.6H29.617V31.6H28.225V33.6ZM28.6701 32.9215L30.4341 38.1175L32.3279 37.4745L30.5639 32.2785L28.6701 32.9215ZM32.381 37.796V32.6H30.381V37.796H32.381ZM31.381 33.6H32.653V31.6H31.381V33.6ZM31.653 32.6V41H33.653V32.6H31.653ZM32.653 40H31.333V42H32.653V40ZM32.2808 40.6813L30.4448 35.2213L28.5492 35.8587L30.3852 41.3187L32.2808 40.6813ZM28.497 35.54V41H30.497V35.54H28.497ZM38.122 36.68H39.122C39.122 36.1277 38.6743 35.68 38.122 35.68V36.68ZM38.122 35.48V36.48C38.6743 36.48 39.122 36.0323 39.122 35.48H38.122ZM36.73 35.48H35.73C35.73 36.0323 36.1777 36.48 36.73 36.48V35.48ZM36.73 37.856H37.73C37.73 37.3037 37.2823 36.856 36.73 36.856V37.856ZM35.914 37.856H34.914C34.914 38.4083 35.3617 38.856 35.914 38.856V37.856ZM35.914 36.68V35.68C35.3617 35.68 34.914 36.1277 34.914 36.68H35.914ZM37.122 36.68V39.32H39.122V36.68H37.122ZM37.122 39.32C37.122 39.7092 37.0144 39.8332 36.9501 39.8872C36.8519 39.9694 36.5968 40.096 36.01 40.096V42.096C36.8272 42.096 37.6281 41.9286 38.2349 41.4198C38.8756 40.8828 39.122 40.1188 39.122 39.32H37.122ZM36.01 40.096H35.914V42.096H36.01V40.096ZM35.914 40.096C35.3272 40.096 35.0721 39.9694 34.9739 39.8872C34.9096 39.8332 34.802 39.7092 34.802 39.32H32.802C32.802 40.1188 33.0484 40.8828 33.6891 41.4198C34.2959 41.9286 35.0968 42.096 35.914 42.096V40.096ZM34.802 39.32V34.28H32.802V39.32H34.802ZM34.802 34.28C34.802 33.8908 34.9096 33.7668 34.9739 33.7128C35.0721 33.6306 35.3272 33.504 35.914 33.504V31.504C35.0968 31.504 34.2959 31.6714 33.6891 32.1802C33.0484 32.7172 32.802 33.4812 32.802 34.28H34.802ZM35.914 33.504H36.01V31.504H35.914V33.504ZM36.01 33.504C36.5968 33.504 36.8519 33.6306 36.9501 33.7128C37.0144 33.7668 37.122 33.8908 37.122 34.28H39.122C39.122 33.4812 38.8756 32.7172 38.2349 32.1802C37.6281 31.6714 36.8272 31.504 36.01 31.504V33.504ZM37.122 34.28V35.48H39.122V34.28H37.122ZM38.122 34.48H36.73V36.48H38.122V34.48ZM37.73 35.48V34.496H35.73V35.48H37.73ZM37.73 34.496C37.73 34.0898 37.6307 33.5955 37.2466 33.2114C36.8625 32.8273 36.3682 32.728 35.962 32.728V34.728C36.0718 34.728 35.9615 34.7547 35.8324 34.6256C35.7033 34.4965 35.73 34.3862 35.73 34.496H37.73ZM35.962 32.728C35.5558 32.728 35.0615 32.8273 34.6774 33.2114C34.2933 33.5955 34.194 34.0898 34.194 34.496H36.194C36.194 34.3862 36.2207 34.4965 36.0916 34.6256C35.9625 34.7547 35.8522 34.728 35.962 34.728V32.728ZM34.194 34.496V39.104H36.194V34.496H34.194ZM34.194 39.104C34.194 39.5102 34.2933 40.0045 34.6774 40.3886C35.0615 40.7727 35.5558 40.872 35.962 40.872V38.872C35.8522 38.872 35.9625 38.8453 36.0916 38.9744C36.2207 39.1035 36.194 39.2138 36.194 39.104H34.194ZM35.962 40.872C36.3682 40.872 36.8625 40.7727 37.2466 40.3886C37.6307 40.0045 37.73 39.5102 37.73 39.104H35.73C35.73 39.2138 35.7033 39.1035 35.8324 38.9744C35.9615 38.8453 36.0718 38.872 35.962 38.872V40.872ZM37.73 39.104V37.856H35.73V39.104H37.73ZM36.73 36.856H35.914V38.856H36.73V36.856ZM36.914 37.856V36.68H34.914V37.856H36.914ZM35.914 37.68H38.122V35.68H35.914V37.68Z" fill="#FF3C00" mask="url(#path-35-outside-1_1481_5311)"/>
</g>
<defs>
<filter id="filter0_d_1481_5311" x="0.552002" y="30.248" width="38.5699" height="14.5879" filterUnits="userSpaceOnUse" color-interpolation-filters="sRGB">
<feFlood flood-opacity="0" result="BackgroundImageFix"/>
<feColorMatrix in="SourceAlpha" type="matrix" values="0 0 0 0 0 0 0 0 0 0 0 0 0 0 0 0 0 0 127 0" result="hardAlpha"/>
<feOffset dy="1"/>
<feGaussianBlur stdDeviation="0.5"/>
<feComposite in2="hardAlpha" operator="out"/>
<feColorMatrix type="matrix" values="0 0 0 0 0 0 0 0 0 0 0 0 0 0 0 0 0 0 0.2 0"/>
<feBlend mode="normal" in2="BackgroundImageFix" result="effect1_dropShadow_1481_5311"/>
<feBlend mode="normal" in="SourceGraphic" in2="effect1_dropShadow_1481_5311" result="shape"/>
</filter>
<radialGradient id="paint0_radial_1481_5311" cx="0" cy="0" r="1" gradientUnits="userSpaceOnUse" gradientTransform="translate(20.3649 -3.73226) scale(59.3772 59.3772)">
<stop offset="0.0663745" stop-color="#FF8C00"/>
<stop offset="1" stop-color="#FF0000"/>
</radialGradient>
<clipPath id="clip0_1481_5311">
<rect width="20" height="20" fill="white" transform="translate(0 7)"/>
</clipPath>
</defs>
</svg>
