<svg width="15" height="14" viewBox="0 0 15 14" fill="none" xmlns="http://www.w3.org/2000/svg">
<g clip-path="url(#clip0_930_5456)">
<path d="M14.3572 7.15546C14.3572 6.57991 14.3105 6.15991 14.2094 5.72437H7.63721V8.32211H11.495C11.4172 8.96769 10.9972 9.93991 10.0639 10.5932L10.0508 10.6802L12.1288 12.29L12.2728 12.3044C13.595 11.0832 14.3572 9.28656 14.3572 7.15546Z" fill="#4285F4"/>
<path d="M7.63714 14.0001C9.52711 14.0001 11.1138 13.3778 12.2727 12.3045L10.0638 10.5934C9.47269 11.0056 8.67934 11.2934 7.63714 11.2934C5.78604 11.2934 4.21494 10.0723 3.65489 8.38452L3.5728 8.39149L1.41205 10.0637L1.38379 10.1423C2.53489 12.4289 4.89934 14.0001 7.63714 14.0001Z" fill="#34A853"/>
<path d="M3.65495 8.38448C3.50718 7.94893 3.42166 7.48223 3.42166 7.00003C3.42166 6.51778 3.50718 6.05113 3.64718 5.61558L3.64327 5.52282L1.45544 3.82373L1.38386 3.85778C0.909432 4.80668 0.637207 5.87226 0.637207 7.00003C0.637207 8.12781 0.909432 9.19333 1.38386 10.1422L3.65495 8.38448Z" fill="#FBBC05"/>
<path d="M7.63714 2.70665C8.95156 2.70665 9.83821 3.27442 10.3438 3.7489L12.3193 1.82C11.106 0.692225 9.52711 0 7.63714 0C4.89934 0 2.53489 1.5711 1.38379 3.85775L3.64711 5.61555C4.21494 3.92777 5.78604 2.70665 7.63714 2.70665Z" fill="#EB4335"/>
</g>
<defs>
<clipPath id="clip0_930_5456">
<rect width="14" height="14" fill="white" transform="translate(0.5)"/>
</clipPath>
</defs>
</svg>
